<?xml version="1.0" encoding="utf-8"?>
<!-- Generator: Adobe Illustrator 22.0.0, SVG Export Plug-In . SVG Version: 6.00 Build 0)  -->
<svg version="1.1" id="Layer_1" xmlns="http://www.w3.org/2000/svg" xmlns:xlink="http://www.w3.org/1999/xlink" x="0px" y="0px"
	 viewBox="0 0 24 24" style="enable-background:new 0 0 24 24;" xml:space="preserve">
<style type="text/css">
	.st0{fill:#48A74A;}
</style>
<path class="st0" d="M19.9,16.6h-13c-0.4,0-0.6-0.2-0.6-0.5c0-0.3,0.3-0.5,0.6-0.5h13l-4.5-4.3c-0.3-0.2-0.3-0.6,0-0.9
	c0.3-0.2,0.7-0.2,0.9,0l5.5,5.3c0.3,0.2,0.3,0.6,0,0.9l-5.5,5.3C16.2,21.9,16,22,15.9,22c-0.2,0-0.3-0.1-0.5-0.2
	c-0.3-0.2-0.3-0.6,0-0.9L19.9,16.6z M4.1,8.5l4.5,4.3c0.3,0.2,0.3,0.6,0,0.9c-0.1,0.1-0.3,0.2-0.5,0.2c-0.2,0-0.3-0.1-0.5-0.2
	L2.2,8.4c-0.3-0.2-0.3-0.6,0-0.9l5.5-5.3c0.3-0.2,0.7-0.2,0.9,0c0.3,0.2,0.3,0.6,0,0.9L4.1,7.4h13c0.4,0,0.6,0.2,0.6,0.5
	c0,0.3-0.3,0.5-0.6,0.5H4.1z"/>
</svg>
